<svg width="59" height="64" viewBox="0 0 59 64" fill="none" xmlns="http://www.w3.org/2000/svg">
<path d="M26.4522 22.5202L37.8904 34.8007V58.116H4.73629V22.5202H26.4522ZM26.4522 17.435H4.73629C2.13133 17.435 0 19.7233 0 22.5202V58.116C0 60.9129 2.13133 63.2012 4.73629 63.2012H37.8904C40.4953 63.2012 42.6266 60.9129 42.6266 58.116V34.8007C42.6266 33.4532 42.1293 32.1565 41.2294 31.2157L29.7913 18.9351C28.9151 17.969 27.7073 17.435 26.4522 17.435Z" fill="#2D719F"/>
<path d="M4.05854 11.986L4.05841 58.4062H13.4334H48.7149V27.2381L42.8346 19.1037L33.5242 10.4608H25.6839H9.02321L4.05854 11.986Z" fill="white"/>
<path d="M35.1806 12.7128L46.6187 24.9934V48.3087H13.4647V12.7128H35.1806ZM35.1806 7.62769H13.4647C10.8597 7.62769 8.72839 9.91599 8.72839 12.7128V48.3087C8.72839 51.1055 10.8597 53.3938 13.4647 53.3938H46.6187C49.2237 53.3938 51.355 51.1055 51.355 48.3087V24.9934C51.355 23.6458 50.8577 22.3491 49.9578 21.4084L38.5197 9.1278C37.6435 8.16162 36.4357 7.62769 35.1806 7.62769ZM18.201 38.1384H41.8824V43.2236H18.201V38.1384ZM18.201 27.9682H41.8824V33.0533H18.201V27.9682ZM18.201 17.7979H34.778V22.8831H18.201V17.7979Z" fill="#2D719F"/>
</svg>
